 http://www.imdb.com/title/tt1198403/

User Rating:4.1/10 - 530 votes

Adventure,Sci-Fi

Director:Jean de Segonzac

Cast:James Brolin/Ian Somerhalder/Bettina Zimmermann, and others.

Plot:
The year is 2048, and global warming has flooded much of Earth's land areas. A father and his two sons try to salvage treasures from sunken buildings when they are given an important assignment by the New Vatican........

Info:

General
Complete name                    : Lost City Raiders-AC3-5,1-DVDRip[Eng]2008.avi
Format                           : AVI
Format/Info                      : Audio Video Interleave
File size                        : 1.39 GiB
Duration                         : 1h 37mn
Overall bit rate                 : 2 036 Kbps
Writing application              : VirtualDubMod 1.5.4.1 (build 2178/release)
Writing library                  : VirtualDubMod build 2178/release

Video
Format                           : MPEG-4 Visual
Format profile                   : Streaming Video@L1
Format settings, BVOP            : Yes
Format settings, QPel            : No
Format settings, GMC             : No warppoints
Format settings, Matrix          : Default
Muxing mode                      : Packed bitstream
Codec ID                         : XVID
Codec ID/Hint                    : XviD
Duration                         : 1h 37mn
Bit rate                         : 1 581 Kbps
Width                            : 704 pixels
Height                           : 400 pixels
Display aspect ratio             : 16/9
Frame rate                       : 25.000 fps
Resolution                       : 24 bits
Colorimetry                      : 4:2:0
Scan type                        : Progressive
Bits/(Pixel*Frame)               : 0.225
Stream size                      : 1.08 GiB (78%)
Writing library                  : XviD 50

Audio
Format                           : AC-3
Format/Info                      : Audio Coding 3
Codec ID                         : 2000
Duration                         : 1h 37mn
Bit rate mode                    : Constant
Bit rate                         : 448 Kbps
Channel(s)                       : 6 channels
Channel positions                : Front: L C R, Surround: L R, LFE
Sampling rate                    : 48.0 KHz
Stream size                      : 313 MiB (22%)
Alignment                        : Split accross interleaves
Interleave, duration             : 80 ms (2.00 video frames)
Interleave, preload duration     : 500 ms
Language                         : English

Enjoy....